<svg width="600" height="800" xmlns="http://www.w3.org/2000/svg">
  <defs>
    <style>
      .hand-outline { fill: #FFF8E7; stroke: #7B3FF2; stroke-width: 3; }
      .title-text { font-family: 'Playfair Display', Georgia, serif; font-size: 26px; fill: #7B3FF2; font-weight: bold; }
      .guide-text { font-family: 'Lato', Arial, sans-serif; font-size: 14px; fill: #9D6EF5; }
      .chakra-dots { fill: #E89AC7; opacity: 0.5; }
    </style>
  </defs>

  <!-- Title -->
  <text x="300" y="40" text-anchor="middle" class="title-text">
    Healing Hand
  </text>

  <text x="300" y="65" text-anchor="middle" class="guide-text" font-style="italic">
    Fill with your favorite healing words and colors
  </text>

  <!-- Hand outline (palm and fingers) -->
  <g class="hand-outline">
    <!-- Palm -->
    <ellipse cx="300" cy="500" rx="90" ry="110"/>

    <!-- Thumb -->
    <ellipse cx="220" cy="450" rx="30" ry="60" transform="rotate(-30 220 450)"/>

    <!-- Index finger -->
    <rect x="270" y="300" width="40" height="120" rx="20"/>
    <ellipse cx="290" cy="280" rx="25" ry="30"/>

    <!-- Middle finger -->
    <rect x="310" y="250" width="40" height="150" rx="20"/>
    <ellipse cx="330" cy="230" rx="25" ry="30"/>

    <!-- Ring finger -->
    <rect x="350" y="280" width="40" height="130" rx="20"/>
    <ellipse cx="370" cy="260" rx="25" ry="30"/>

    <!-- Pinky -->
    <rect x="390" y="320" width="35" height="100" rx="18"/>
    <ellipse cx="407" cy="305" rx="22" ry="28"/>
  </g>

  <!-- Chakra dots on palm (energy centers) -->
  <circle cx="300" cy="480" r="8" class="chakra-dots"/>
  <circle cx="300" cy="510" r="8" class="chakra-dots"/>
  <circle cx="300" cy="540" r="8" class="chakra-dots"/>

  <!-- Sacred symbols for guidance -->
  <text x="290" y="330" text-anchor="middle" font-size="16" fill="#D4AF37" opacity="0.4">✦</text>
  <text x="330" y="280" text-anchor="middle" font-size="16" fill="#D4AF37" opacity="0.4">✦</text>
  <text x="370" y="310" text-anchor="middle" font-size="16" fill="#D4AF37" opacity="0.4">✦</text>
  <text x="407" y="350" text-anchor="middle" font-size="16" fill="#D4AF37" opacity="0.4">✦</text>
  <text x="240" cy="470" text-anchor="middle" font-size="16" fill="#D4AF37" opacity="0.4">✦</text>

  <!-- Instructions -->
  <text x="300" y="660" text-anchor="middle" font-size="16" fill="#4ECDC4" font-weight="bold">
    INSTRUCTIONS
  </text>

  <text x="300" y="690" text-anchor="middle" class="guide-text">
    1. Trace your own hand on this page (or use template)
  </text>

  <text x="300" y="715" text-anchor="middle" class="guide-text">
    2. Fill each finger with a healing word
  </text>

  <text x="300" y="740" text-anchor="middle" class="guide-text">
    3. Color with your favorite colors
  </text>

  <text x="300" y="765" text-anchor="middle" class="guide-text">
    4. Palm = Words that ground you
  </text>

</svg>